<svg xmlns="http://www.w3.org/2000/svg" width="47" height="29" viewBox="0 0 122.9 85.2"><style type="text/css">    .st0{fill-rule:evenodd;clip-rule:evenodd;}</style><path class="st0" d="M94 12.9 89.2 13 99.7 47.7c-1.5 0.4-2.8 0.8-4.1 1.3 1.3-0.5 2.6-0.9 4-1.3 9.3-2.1 16.9 0.9 23.2 8.1l-7.9 3.7-33.4 15.8c-0.3-2-0.4-4-0.3-5.8 0 0.3 0 0.5 0 0.8H42.8c0 8.2-6.7 14.9-14.9 14.9C19.7 85.2 13 78.5 13 70.3H0.4C-0.5 53.2 7.6 40.1 21.7 38.8H2.7C1.2 38.8 0 37.6 0 36.1v-3C0 31.6 1.2 30.4 2.7 30.4H2.9V9.8C2.9 8.5 4 7.3 5.4 7.3h35.4c1.3 0 2.5 1.1 2.5 2.5v20.6h17.5c1.8-0.1 2.8 0.8 2.8 2.6v5.8 0 3.8C55.7 48.8 54.5 58.5 61.7 64H73.3C73.6 54.7 78.9 49.1 87.7 42.8L82.4 26.6C80.2 21.6 81.7 17.7 84.8 15.1 83.8 11.9 83.1 9.2 83.3 7L77.8 8.1C76 8.5 75.5 9.1 75 7.4 74.9 7.1 74.8 6.8 74.8 6.5 74.3 4.1 74.6 4.3 76.5 3.9l5.9-1.1h1.7l2.2-1.2c1.3-0.7 2.6-1.2 4-1.4l1.9-0.1c1.9 0 4.1-0.5 5.2 1.3 0 0 0 0.1 0 0.3 0.8 0.3 1.5 0.9 2 1.7 0.6 1 1 2.3 1 3.8 0 1.5-0.4 2.8-1 3.8-0.7 1.1-1.7 1.8-2.9 1.8-0.5 0.4-1.6 0.1-2.5 0.1v0zM19.7 24.4H7.2v2.2H19.7V24.4ZM29.1 9.5h-9v9.8l4.7-3.7 4.3 3.7V9.5ZM19.7 30.1H7.2v2.2h12.5v-2.2zm95.2 29.5-13.3 6.3 4.3-2c3 0.6 5.2 3.3 5.2 6.4 0 3.6-2.9 6.6-6.6 6.6-3.6 0-6.6-2.9-6.6-6.6 0-1.1 0.3-2.2 0.8-3.1l-9.1 4.3c0.6 7.7 7 13.7 14.9 13.7 8.2 0 14.9-6.7 14.9-14.9 0.1-4.2-1.7-8-4.5-10.7v0zM97.5 4.2c-0.1 1.9-0.2 4.4-0.3 6.1 0.2-0.1 0.3-0.3 0.5-0.5 0.4-0.6 0.7-1.6 0.7-2.6 0-1-0.3-2-0.7-2.6C97.6 4.4 97.6 4.3 97.5 4.2ZM34.4 70.3H21.3c0 3.6 2.9 6.5 6.6 6.5 3.7 0 6.5-2.9 6.5-6.5v0z" fill="#fff"/></svg>